<svg xmlns="http://www.w3.org/2000/svg" version="1.1" xmlns:xlink="http://www.w3.org/1999/xlink" xmlns:svgjs="http://svgjs.com/svgjs" width="1440" height="560" preserveAspectRatio="none" viewBox="0 0 1440 560"><g mask="url(&quot;#SvgjsMask1000&quot;)" fill="none"><rect width="1440" height="560" x="0" y="0" fill="#0e2a47"></rect><circle r="90.71789550236147" cx="783.14" cy="317.55" fill="#037b0b"></circle><rect width="96" height="96" clip-path="url(&quot;#SvgjsClipPath1001&quot;)" x="619.17" y="20.6" fill="url(#SvgjsPattern1002)" transform="rotate(88.85, 667.17, 68.6)"></rect><rect width="138.4" height="138.4" clip-path="url(&quot;#SvgjsClipPath1003&quot;)" x="430.5" y="-40.11" fill="url(#SvgjsPattern1004)" transform="rotate(11.52, 499.7, 29.09)"></rect><rect width="336" height="336" clip-path="url(&quot;#SvgjsClipPath1005&quot;)" x="456.67" y="158.74" fill="url(#SvgjsPattern1006)" transform="rotate(13.92, 624.67, 326.74)"></rect><path d="M969.32 35L957.26 39.3 950.42 28.48 938.36 32.78 931.51 21.96 919.45 26.26 912.6 15.43" stroke="#037b0b" stroke-width="1"></path><path d="M348.81 71.4 L312.57 168.92000000000002L285.25281351548176 74.72281351548175z" stroke="#e73635" stroke-width="2.1" stroke-dasharray="2, 2"></path><rect width="240" height="240" clip-path="url(&quot;#SvgjsClipPath1007&quot;)" x="1145.32" y="167.75" fill="url(#SvgjsPattern1008)" transform="rotate(207.33, 1265.32, 287.75)"></rect><path d="M512.99 294.25L523.7 287.22 532.91 296.12 543.61 289.09 552.82 297.99 563.52 290.96 572.73 299.86" stroke="#d3b714" stroke-width="2.55" stroke-dasharray="4, 4"></path><rect width="226.44" height="226.44" clip-path="url(&quot;#SvgjsClipPath1009&quot;)" x="490.49" y="203.66" fill="url(#SvgjsPattern1010)" transform="rotate(322.89, 603.71, 316.88)"></rect><rect width="120" height="120" clip-path="url(&quot;#SvgjsClipPath1011&quot;)" x="1075.61" y="304.29" fill="url(#SvgjsPattern1012)" transform="rotate(359.19, 1135.61, 364.29)"></rect><rect width="336" height="336" clip-path="url(&quot;#SvgjsClipPath1013&quot;)" x="1048.56" y="152.03" fill="url(#SvgjsPattern1014)" transform="rotate(225.43, 1216.56, 320.03)"></rect><circle r="57.35890904643808" cx="759.08" cy="106.14" stroke="#d3b714" stroke-width="1" stroke-dasharray="3, 2"></circle></g><defs><mask id="SvgjsMask1000"><rect width="1440" height="560" fill="#ffffff"></rect></mask><pattern x="0" y="0" width="96" height="6" patternUnits="userSpaceOnUse" id="SvgjsPattern1002"><rect width="96" height="3" x="0" y="0" fill="#e73635"></rect><rect width="96" height="3" x="0" y="3" fill="rgba(0, 0, 0, 0)"></rect></pattern><clipPath id="SvgjsClipPath1001"><circle r="24" cx="667.17" cy="68.6"></circle></clipPath><pattern x="0" y="0" width="138.4" height="13.84" patternUnits="userSpaceOnUse" id="SvgjsPattern1004"><rect width="138.4" height="6.92" x="0" y="0" fill="#e73635"></rect><rect width="138.4" height="6.92" x="0" y="6.92" fill="rgba(0, 0, 0, 0)"></rect></pattern><clipPath id="SvgjsClipPath1003"><circle r="34.6" cx="499.7" cy="29.09"></circle></clipPath><pattern x="0" y="0" width="336" height="6" patternUnits="userSpaceOnUse" id="SvgjsPattern1006"><rect width="336" height="3" x="0" y="0" fill="#e73635"></rect><rect width="336" height="3" x="0" y="3" fill="rgba(0, 0, 0, 0)"></rect></pattern><clipPath id="SvgjsClipPath1005"><circle r="84" cx="624.67" cy="326.74"></circle></clipPath><pattern x="0" y="0" width="240" height="6" patternUnits="userSpaceOnUse" id="SvgjsPattern1008"><rect width="240" height="3" x="0" y="0" fill="#d3b714"></rect><rect width="240" height="3" x="0" y="3" fill="rgba(0, 0, 0, 0)"></rect></pattern><clipPath id="SvgjsClipPath1007"><circle r="60" cx="1265.32" cy="287.75"></circle></clipPath><pattern x="0" y="0" width="12.58" height="12.58" patternUnits="userSpaceOnUse" id="SvgjsPattern1010"><path d="M0 12.58L6.29 0L12.58 12.58" stroke="#d3b714" fill="none"></path></pattern><clipPath id="SvgjsClipPath1009"><circle r="56.61" cx="603.71" cy="316.88"></circle></clipPath><pattern x="0" y="0" width="6" height="6" patternUnits="userSpaceOnUse" id="SvgjsPattern1012"><path d="M0 6L3 0L6 6" stroke="#e73635" fill="none"></path></pattern><clipPath id="SvgjsClipPath1011"><circle r="30" cx="1135.61" cy="364.29"></circle></clipPath><pattern x="0" y="0" width="6" height="6" patternUnits="userSpaceOnUse" id="SvgjsPattern1014"><path d="M3 1L3 5M1 3L5 3" stroke="#037b0b" fill="none" stroke-width="1"></path></pattern><clipPath id="SvgjsClipPath1013"><circle r="84" cx="1216.56" cy="320.03"></circle></clipPath></defs></svg>