<svg xmlns="http://www.w3.org/2000/svg" version="1.1" xmlns:xlink="http://www.w3.org/1999/xlink" xmlns:svgjs="http://svgjs.com/svgjs" width="1440" height="560" preserveAspectRatio="none" viewBox="0 0 1440 560"><g mask="url(&quot;#SvgjsMask1000&quot;)" fill="none"><rect width="1440" height="560" x="0" y="0" fill="#0e2a47"></rect><path d="M-104.82 339.41L-104.82 339.41" stroke="#132e65" stroke-width="1.5"></path><path d="M-104.82 339.41L61.8 342.17" stroke="#132e65" stroke-width="1.5"></path><path d="M-104.82 339.41L41.6 509.71" stroke="#132e65" stroke-width="1.5"></path><path d="M-47.79 559.47L-47.79 559.47" stroke="#132e65" stroke-width="1.5"></path><path d="M-47.79 559.47L-67 654.7" stroke="#132e65" stroke-width="1.5"></path><path d="M-47.79 559.47L41.6 509.71" stroke="#132e65" stroke-width="1.5"></path><path d="M-47.79 559.47L47.23 701.55" stroke="#132e65" stroke-width="1.5"></path><path d="M-47.79 559.47L-104.82 339.41" stroke="#132e65" stroke-width="1.5"></path><path d="M-67 654.7L-67 654.7" stroke="#132e65" stroke-width="1.5"></path><path d="M-67 654.7L47.23 701.55" stroke="#132e65" stroke-width="1.5"></path><path d="M-67 654.7L41.6 509.71" stroke="#132e65" stroke-width="1.5"></path><path d="M-67 654.7L204.95 669.22" stroke="#132e65" stroke-width="1.5"></path><path d="M-67 654.7L-104.82 339.41" stroke="#132e65" stroke-width="1.5"></path><path d="M-67 654.7L231.12 523.62" stroke="#132e65" stroke-width="1.5"></path><path d="M61.8 342.17L61.8 342.17" stroke="#132e65" stroke-width="1.5"></path><path d="M61.8 342.17L209.29 384.42" stroke="#132e65" stroke-width="1.5"></path><path d="M41.6 509.71L41.6 509.71" stroke="#132e65" stroke-width="1.5"></path><path d="M41.6 509.71L61.8 342.17" stroke="#132e65" stroke-width="1.5"></path><path d="M47.23 701.55L47.23 701.55" stroke="#132e65" stroke-width="1.5"></path><path d="M47.23 701.55L204.95 669.22" stroke="#132e65" stroke-width="1.5"></path><path d="M47.23 701.55L41.6 509.71" stroke="#132e65" stroke-width="1.5"></path><path d="M47.23 701.55L231.12 523.62" stroke="#132e65" stroke-width="1.5"></path><path d="M209.29 384.42L209.29 384.42" stroke="#132e65" stroke-width="1.5"></path><path d="M209.29 384.42L231.12 523.62" stroke="#132e65" stroke-width="1.5"></path><path d="M209.29 384.42L393.26 344.76" stroke="#132e65" stroke-width="1.5"></path><path d="M209.29 384.42L41.6 509.71" stroke="#132e65" stroke-width="1.5"></path><path d="M209.29 384.42L204.95 669.22" stroke="#132e65" stroke-width="1.5"></path><path d="M209.29 384.42L-47.79 559.47" stroke="#132e65" stroke-width="1.5"></path><path d="M231.12 523.62L231.12 523.62" stroke="#132e65" stroke-width="1.5"></path><path d="M231.12 523.62L204.95 669.22" stroke="#132e65" stroke-width="1.5"></path><path d="M231.12 523.62L41.6 509.71" stroke="#132e65" stroke-width="1.5"></path><path d="M231.12 523.62L393.26 344.76" stroke="#132e65" stroke-width="1.5"></path><path d="M231.12 523.62L61.8 342.17" stroke="#132e65" stroke-width="1.5"></path><path d="M204.95 669.22L204.95 669.22" stroke="#132e65" stroke-width="1.5"></path><path d="M393.26 344.76L393.26 344.76" stroke="#132e65" stroke-width="1.5"></path><path d="M393.26 344.76L521.27 383.38" stroke="#132e65" stroke-width="1.5"></path><path d="M393.26 344.76L528.98 527.34" stroke="#132e65" stroke-width="1.5"></path><path d="M393.26 344.76L676.26 254.36" stroke="#132e65" stroke-width="1.5"></path><path d="M393.26 344.76L710.63 411.23" stroke="#132e65" stroke-width="1.5"></path><path d="M521.27 383.38L521.27 383.38" stroke="#132e65" stroke-width="1.5"></path><path d="M521.27 383.38L528.98 527.34" stroke="#132e65" stroke-width="1.5"></path><path d="M521.27 383.38L710.63 411.23" stroke="#132e65" stroke-width="1.5"></path><path d="M528.98 527.34L528.98 527.34" stroke="#132e65" stroke-width="1.5"></path><path d="M528.98 527.34L550.33 679.12" stroke="#132e65" stroke-width="1.5"></path><path d="M550.33 679.12L550.33 679.12" stroke="#132e65" stroke-width="1.5"></path><path d="M550.33 679.12L703.9 700.89" stroke="#132e65" stroke-width="1.5"></path><path d="M550.33 679.12L681.88 510.23" stroke="#132e65" stroke-width="1.5"></path><path d="M550.33 679.12L820.14 672.45" stroke="#132e65" stroke-width="1.5"></path><path d="M676.26 254.36L676.26 254.36" stroke="#132e65" stroke-width="1.5"></path><path d="M676.26 254.36L818.47 247.63" stroke="#132e65" stroke-width="1.5"></path><path d="M676.26 254.36L710.63 411.23" stroke="#132e65" stroke-width="1.5"></path><path d="M710.63 411.23L710.63 411.23" stroke="#132e65" stroke-width="1.5"></path><path d="M710.63 411.23L681.88 510.23" stroke="#132e65" stroke-width="1.5"></path><path d="M710.63 411.23L851.54 519.58" stroke="#132e65" stroke-width="1.5"></path><path d="M681.88 510.23L681.88 510.23" stroke="#132e65" stroke-width="1.5"></path><path d="M681.88 510.23L528.98 527.34" stroke="#132e65" stroke-width="1.5"></path><path d="M681.88 510.23L851.54 519.58" stroke="#132e65" stroke-width="1.5"></path><path d="M681.88 510.23L703.9 700.89" stroke="#132e65" stroke-width="1.5"></path><path d="M681.88 510.23L521.27 383.38" stroke="#132e65" stroke-width="1.5"></path><path d="M681.88 510.23L820.14 672.45" stroke="#132e65" stroke-width="1.5"></path><path d="M703.9 700.89L703.9 700.89" stroke="#132e65" stroke-width="1.5"></path><path d="M703.9 700.89L820.14 672.45" stroke="#132e65" stroke-width="1.5"></path><path d="M703.9 700.89L851.54 519.58" stroke="#132e65" stroke-width="1.5"></path><path d="M703.9 700.89L528.98 527.34" stroke="#132e65" stroke-width="1.5"></path><path d="M818.47 247.63L818.47 247.63" stroke="#132e65" stroke-width="1.5"></path><path d="M818.47 247.63L962.7 261.72" stroke="#132e65" stroke-width="1.5"></path><path d="M851.54 519.58L851.54 519.58" stroke="#132e65" stroke-width="1.5"></path><path d="M851.54 519.58L943.74 490.77" stroke="#132e65" stroke-width="1.5"></path><path d="M851.54 519.58L820.14 672.45" stroke="#132e65" stroke-width="1.5"></path><path d="M820.14 672.45L820.14 672.45" stroke="#132e65" stroke-width="1.5"></path><path d="M994.12 -82.49L994.12 -82.49" stroke="#132e65" stroke-width="1.5"></path><path d="M994.12 -82.49L1087.96 -85.21" stroke="#132e65" stroke-width="1.5"></path><path d="M994.12 -82.49L974.84 65.01" stroke="#132e65" stroke-width="1.5"></path><path d="M994.12 -82.49L1088.63 94.55" stroke="#132e65" stroke-width="1.5"></path><path d="M994.12 -82.49L1305.15 -98.01" stroke="#132e65" stroke-width="1.5"></path><path d="M974.84 65.01L974.84 65.01" stroke="#132e65" stroke-width="1.5"></path><path d="M974.84 65.01L1088.63 94.55" stroke="#132e65" stroke-width="1.5"></path><path d="M974.84 65.01L1087.96 -85.21" stroke="#132e65" stroke-width="1.5"></path><path d="M974.84 65.01L962.7 261.72" stroke="#132e65" stroke-width="1.5"></path><path d="M974.84 65.01L818.47 247.63" stroke="#132e65" stroke-width="1.5"></path><path d="M974.84 65.01L1259.61 90.86" stroke="#132e65" stroke-width="1.5"></path><path d="M962.7 261.72L962.7 261.72" stroke="#132e65" stroke-width="1.5"></path><path d="M962.7 261.72L979.52 400.82" stroke="#132e65" stroke-width="1.5"></path><path d="M962.7 261.72L1088.63 94.55" stroke="#132e65" stroke-width="1.5"></path><path d="M962.7 261.72L1132.22 408.56" stroke="#132e65" stroke-width="1.5"></path><path d="M962.7 261.72L943.74 490.77" stroke="#132e65" stroke-width="1.5"></path><path d="M979.52 400.82L979.52 400.82" stroke="#132e65" stroke-width="1.5"></path><path d="M979.52 400.82L943.74 490.77" stroke="#132e65" stroke-width="1.5"></path><path d="M979.52 400.82L1132.22 408.56" stroke="#132e65" stroke-width="1.5"></path><path d="M979.52 400.82L1098.32 510.5" stroke="#132e65" stroke-width="1.5"></path><path d="M943.74 490.77L943.74 490.77" stroke="#132e65" stroke-width="1.5"></path><path d="M943.74 490.77L1098.32 510.5" stroke="#132e65" stroke-width="1.5"></path><path d="M943.74 490.77L1132.22 408.56" stroke="#132e65" stroke-width="1.5"></path><path d="M943.74 490.77L957.65 708.85" stroke="#132e65" stroke-width="1.5"></path><path d="M943.74 490.77L820.14 672.45" stroke="#132e65" stroke-width="1.5"></path><path d="M957.65 708.85L957.65 708.85" stroke="#132e65" stroke-width="1.5"></path><path d="M957.65 708.85L820.14 672.45" stroke="#132e65" stroke-width="1.5"></path><path d="M957.65 708.85L1113.58 699.47" stroke="#132e65" stroke-width="1.5"></path><path d="M1087.96 -85.21L1087.96 -85.21" stroke="#132e65" stroke-width="1.5"></path><path d="M1087.96 -85.21L1088.63 94.55" stroke="#132e65" stroke-width="1.5"></path><path d="M1087.96 -85.21L1305.15 -98.01" stroke="#132e65" stroke-width="1.5"></path><path d="M1087.96 -85.21L1259.61 90.86" stroke="#132e65" stroke-width="1.5"></path><path d="M1087.96 -85.21L1393.98 -68.28" stroke="#132e65" stroke-width="1.5"></path><path d="M1088.63 94.55L1088.63 94.55" stroke="#132e65" stroke-width="1.5"></path><path d="M1088.63 94.55L1259.61 90.86" stroke="#132e65" stroke-width="1.5"></path><path d="M1088.63 94.55L1247 198.76" stroke="#132e65" stroke-width="1.5"></path><path d="M1132.22 408.56L1132.22 408.56" stroke="#132e65" stroke-width="1.5"></path><path d="M1132.22 408.56L1098.32 510.5" stroke="#132e65" stroke-width="1.5"></path><path d="M1132.22 408.56L1283.36 352.32" stroke="#132e65" stroke-width="1.5"></path><path d="M1098.32 510.5L1098.32 510.5" stroke="#132e65" stroke-width="1.5"></path><path d="M1098.32 510.5L1254.65 541.77" stroke="#132e65" stroke-width="1.5"></path><path d="M1098.32 510.5L1113.58 699.47" stroke="#132e65" stroke-width="1.5"></path><path d="M1113.58 699.47L1113.58 699.47" stroke="#132e65" stroke-width="1.5"></path><path d="M1113.58 699.47L1274.25 654.07" stroke="#132e65" stroke-width="1.5"></path><path d="M1113.58 699.47L1254.65 541.77" stroke="#132e65" stroke-width="1.5"></path><path d="M1305.15 -98.01L1305.15 -98.01" stroke="#132e65" stroke-width="1.5"></path><path d="M1305.15 -98.01L1393.98 -68.28" stroke="#132e65" stroke-width="1.5"></path><path d="M1305.15 -98.01L1259.61 90.86" stroke="#132e65" stroke-width="1.5"></path><path d="M1305.15 -98.01L1439.7 81.37" stroke="#132e65" stroke-width="1.5"></path><path d="M1305.15 -98.01L1584.52 -84.6" stroke="#132e65" stroke-width="1.5"></path><path d="M1259.61 90.86L1259.61 90.86" stroke="#132e65" stroke-width="1.5"></path><path d="M1259.61 90.86L1247 198.76" stroke="#132e65" stroke-width="1.5"></path><path d="M1259.61 90.86L1439.7 81.37" stroke="#132e65" stroke-width="1.5"></path><path d="M1247 198.76L1247 198.76" stroke="#132e65" stroke-width="1.5"></path><path d="M1247 198.76L1283.36 352.32" stroke="#132e65" stroke-width="1.5"></path><path d="M1247 198.76L1395.7 262.19" stroke="#132e65" stroke-width="1.5"></path><path d="M1283.36 352.32L1283.36 352.32" stroke="#132e65" stroke-width="1.5"></path><path d="M1283.36 352.32L1396.85 356.25" stroke="#132e65" stroke-width="1.5"></path><path d="M1283.36 352.32L1395.7 262.19" stroke="#132e65" stroke-width="1.5"></path><path d="M1254.65 541.77L1254.65 541.77" stroke="#132e65" stroke-width="1.5"></path><path d="M1254.65 541.77L1274.25 654.07" stroke="#132e65" stroke-width="1.5"></path><path d="M1254.65 541.77L1132.22 408.56" stroke="#132e65" stroke-width="1.5"></path><path d="M1274.25 654.07L1274.25 654.07" stroke="#132e65" stroke-width="1.5"></path><path d="M1274.25 654.07L1441.55 674.06" stroke="#132e65" stroke-width="1.5"></path><path d="M1274.25 654.07L1445.46 537.62" stroke="#132e65" stroke-width="1.5"></path><path d="M1393.98 -68.28L1393.98 -68.28" stroke="#132e65" stroke-width="1.5"></path><path d="M1393.98 -68.28L1439.7 81.37" stroke="#132e65" stroke-width="1.5"></path><path d="M1393.98 -68.28L1584.52 -84.6" stroke="#132e65" stroke-width="1.5"></path><path d="M1393.98 -68.28L1259.61 90.86" stroke="#132e65" stroke-width="1.5"></path><path d="M1439.7 81.37L1439.7 81.37" stroke="#132e65" stroke-width="1.5"></path><path d="M1439.7 81.37L1548.03 79.12" stroke="#132e65" stroke-width="1.5"></path><path d="M1439.7 81.37L1395.7 262.19" stroke="#132e65" stroke-width="1.5"></path><path d="M1439.7 81.37L1584.52 -84.6" stroke="#132e65" stroke-width="1.5"></path><path d="M1395.7 262.19L1395.7 262.19" stroke="#132e65" stroke-width="1.5"></path><path d="M1395.7 262.19L1396.85 356.25" stroke="#132e65" stroke-width="1.5"></path><path d="M1396.85 356.25L1396.85 356.25" stroke="#132e65" stroke-width="1.5"></path><path d="M1396.85 356.25L1445.46 537.62" stroke="#132e65" stroke-width="1.5"></path><path d="M1445.46 537.62L1445.46 537.62" stroke="#132e65" stroke-width="1.5"></path><path d="M1445.46 537.62L1541.84 536.01" stroke="#132e65" stroke-width="1.5"></path><path d="M1445.46 537.62L1441.55 674.06" stroke="#132e65" stroke-width="1.5"></path><path d="M1445.46 537.62L1254.65 541.77" stroke="#132e65" stroke-width="1.5"></path><path d="M1441.55 674.06L1441.55 674.06" stroke="#132e65" stroke-width="1.5"></path><path d="M1441.55 674.06L1573.1 687.8" stroke="#132e65" stroke-width="1.5"></path><path d="M1584.52 -84.6L1584.52 -84.6" stroke="#132e65" stroke-width="1.5"></path><path d="M1584.52 -84.6L1548.03 79.12" stroke="#132e65" stroke-width="1.5"></path><path d="M1548.03 79.12L1548.03 79.12" stroke="#132e65" stroke-width="1.5"></path><path d="M1548.03 79.12L1601.54 236.94" stroke="#132e65" stroke-width="1.5"></path><path d="M1601.54 236.94L1601.54 236.94" stroke="#132e65" stroke-width="1.5"></path><path d="M1601.54 236.94L1597.07 340.23" stroke="#132e65" stroke-width="1.5"></path><path d="M1601.54 236.94L1395.7 262.19" stroke="#132e65" stroke-width="1.5"></path><path d="M1597.07 340.23L1597.07 340.23" stroke="#132e65" stroke-width="1.5"></path><path d="M1597.07 340.23L1396.85 356.25" stroke="#132e65" stroke-width="1.5"></path><path d="M1597.07 340.23L1541.84 536.01" stroke="#132e65" stroke-width="1.5"></path><path d="M1597.07 340.23L1395.7 262.19" stroke="#132e65" stroke-width="1.5"></path><path d="M1541.84 536.01L1541.84 536.01" stroke="#132e65" stroke-width="1.5"></path><path d="M1541.84 536.01L1573.1 687.8" stroke="#132e65" stroke-width="1.5"></path><path d="M1541.84 536.01L1441.55 674.06" stroke="#132e65" stroke-width="1.5"></path><path d="M1541.84 536.01L1396.85 356.25" stroke="#132e65" stroke-width="1.5"></path><path d="M1541.84 536.01L1254.65 541.77" stroke="#132e65" stroke-width="1.5"></path><path d="M1573.1 687.8L1573.1 687.8" stroke="#132e65" stroke-width="1.5"></path><path d="M1573.1 687.8L1445.46 537.62" stroke="#132e65" stroke-width="1.5"></path><path d="M1573.1 687.8L1274.25 654.07" stroke="#132e65" stroke-width="1.5"></path><path d="M1573.1 687.8L1597.07 340.23" stroke="#132e65" stroke-width="1.5"></path><path d="M1573.1 687.8L1254.65 541.77" stroke="#132e65" stroke-width="1.5"></path><circle r="5" cx="-104.82" cy="339.41" fill="#132e65"></circle><circle r="5" cx="-47.79" cy="559.47" fill="#132e65"></circle><circle r="5" cx="-67" cy="654.7" fill="#132e65"></circle><circle r="5" cx="61.8" cy="342.17" fill="#132e65"></circle><circle r="5" cx="41.6" cy="509.71" fill="#132e65"></circle><circle r="5" cx="47.23" cy="701.55" fill="#132e65"></circle><circle r="5" cx="209.29" cy="384.42" fill="#132e65"></circle><circle r="5" cx="231.12" cy="523.62" fill="#132e65"></circle><circle r="5" cx="204.95" cy="669.22" fill="#132e65"></circle><circle r="5" cx="393.26" cy="344.76" fill="#132e65"></circle><circle r="5" cx="521.27" cy="383.38" fill="#132e65"></circle><circle r="5" cx="528.98" cy="527.34" fill="#132e65"></circle><circle r="5" cx="550.33" cy="679.12" fill="#132e65"></circle><circle r="5" cx="676.26" cy="254.36" fill="#132e65"></circle><circle r="5" cx="710.63" cy="411.23" fill="#132e65"></circle><circle r="5" cx="681.88" cy="510.23" fill="#132e65"></circle><circle r="5" cx="703.9" cy="700.89" fill="#132e65"></circle><circle r="5" cx="818.47" cy="247.63" fill="#132e65"></circle><circle r="5" cx="851.54" cy="519.58" fill="#132e65"></circle><circle r="5" cx="820.14" cy="672.45" fill="#132e65"></circle><circle r="5" cx="994.12" cy="-82.49" fill="#132e65"></circle><circle r="5" cx="974.84" cy="65.01" fill="#132e65"></circle><circle r="5" cx="962.7" cy="261.72" fill="#132e65"></circle><circle r="5" cx="979.52" cy="400.82" fill="#132e65"></circle><circle r="5" cx="943.74" cy="490.77" fill="#132e65"></circle><circle r="5" cx="957.65" cy="708.85" fill="#132e65"></circle><circle r="5" cx="1087.96" cy="-85.21" fill="#132e65"></circle><circle r="5" cx="1088.63" cy="94.55" fill="#132e65"></circle><circle r="5" cx="1132.22" cy="408.56" fill="#132e65"></circle><circle r="5" cx="1098.32" cy="510.5" fill="#132e65"></circle><circle r="5" cx="1113.58" cy="699.47" fill="#132e65"></circle><circle r="5" cx="1305.15" cy="-98.01" fill="#132e65"></circle><circle r="5" cx="1259.61" cy="90.86" fill="#132e65"></circle><circle r="5" cx="1247" cy="198.76" fill="#132e65"></circle><circle r="5" cx="1283.36" cy="352.32" fill="#132e65"></circle><circle r="5" cx="1254.65" cy="541.77" fill="#132e65"></circle><circle r="5" cx="1274.25" cy="654.07" fill="#132e65"></circle><circle r="5" cx="1393.98" cy="-68.28" fill="#132e65"></circle><circle r="5" cx="1439.7" cy="81.37" fill="#132e65"></circle><circle r="5" cx="1395.7" cy="262.19" fill="#132e65"></circle><circle r="5" cx="1396.85" cy="356.25" fill="#132e65"></circle><circle r="5" cx="1445.46" cy="537.62" fill="#132e65"></circle><circle r="5" cx="1441.55" cy="674.06" fill="#132e65"></circle><circle r="5" cx="1584.52" cy="-84.6" fill="#132e65"></circle><circle r="5" cx="1548.03" cy="79.12" fill="#132e65"></circle><circle r="5" cx="1601.54" cy="236.94" fill="#132e65"></circle><circle r="5" cx="1597.07" cy="340.23" fill="#132e65"></circle><circle r="5" cx="1541.84" cy="536.01" fill="#132e65"></circle><circle r="5" cx="1573.1" cy="687.8" fill="#132e65"></circle><path d="M687.89 677.27L687.89 677.27" stroke="hsl(228.5, 77.2%, 51.5%)" stroke-width="1.5"></path><path d="M687.89 677.27L854.57 645.3" stroke="hsl(228.5, 77.2%, 51.5%)" stroke-width="1.5"></path><path d="M687.89 677.27L711.63 500.3" stroke="hsl(228.5, 77.2%, 51.5%)" stroke-width="1.5"></path><path d="M687.89 677.27L829.69 561.52" stroke="hsl(228.5, 77.2%, 51.5%)" stroke-width="1.5"></path><path d="M687.89 677.27L546.28 541.73" stroke="hsl(228.5, 77.2%, 51.5%)" stroke-width="1.5"></path><path d="M687.89 677.27L951.91 673.13" stroke="hsl(228.5, 77.2%, 51.5%)" stroke-width="1.5"></path><path d="M951.91 673.13L951.91 673.13" stroke="hsl(228.5, 77.2%, 51.5%)" stroke-width="1.5"></path><path d="M951.91 673.13L854.57 645.3" stroke="hsl(228.5, 77.2%, 51.5%)" stroke-width="1.5"></path><path d="M951.91 673.13L829.69 561.52" stroke="hsl(228.5, 77.2%, 51.5%)" stroke-width="1.5"></path><path d="M951.91 673.13L1130.23 650.39" stroke="hsl(228.5, 77.2%, 51.5%)" stroke-width="1.5"></path><path d="M951.91 673.13L982.75 487.68" stroke="hsl(228.5, 77.2%, 51.5%)" stroke-width="1.5"></path><path d="M951.91 673.13L1101.41 523.7" stroke="hsl(228.5, 77.2%, 51.5%)" stroke-width="1.5"></path><path d="M1130.23 650.39L1130.23 650.39" stroke="hsl(228.5, 77.2%, 51.5%)" stroke-width="1.5"></path><path d="M1130.23 650.39L1101.41 523.7" stroke="hsl(228.5, 77.2%, 51.5%)" stroke-width="1.5"></path><path d="M1130.23 650.39L1305.4 662.89" stroke="hsl(228.5, 77.2%, 51.5%)" stroke-width="1.5"></path><path d="M1130.23 650.39L982.75 487.68" stroke="hsl(228.5, 77.2%, 51.5%)" stroke-width="1.5"></path><path d="M1130.23 650.39L1297.49 506.88" stroke="hsl(228.5, 77.2%, 51.5%)" stroke-width="1.5"></path><path d="M1409.32 97.33L1409.32 97.33" stroke="hsl(228.5, 77.2%, 51.5%)" stroke-width="1.5"></path><path d="M1409.32 97.33L1454.02 206.19" stroke="hsl(228.5, 77.2%, 51.5%)" stroke-width="1.5"></path><path d="M1409.32 97.33L1537.92 103.56" stroke="hsl(228.5, 77.2%, 51.5%)" stroke-width="1.5"></path><path d="M1409.32 97.33L1243.62 78.58" stroke="hsl(228.5, 77.2%, 51.5%)" stroke-width="1.5"></path><path d="M1409.32 97.33L1276.31 232.69" stroke="hsl(228.5, 77.2%, 51.5%)" stroke-width="1.5"></path><path d="M1409.32 97.33L1301.7 -59.99" stroke="hsl(228.5, 77.2%, 51.5%)" stroke-width="1.5"></path><path d="M1409.32 97.33L1406.24 -109.52" stroke="hsl(228.5, 77.2%, 51.5%)" stroke-width="1.5"></path><path d="M1452.98 393.51L1452.98 393.51" stroke="hsl(228.5, 77.2%, 51.5%)" stroke-width="1.5"></path><path d="M1452.98 393.51L1307.39 370.63" stroke="hsl(228.5, 77.2%, 51.5%)" stroke-width="1.5"></path><path d="M1452.98 393.51L1392.34 550.48" stroke="hsl(228.5, 77.2%, 51.5%)" stroke-width="1.5"></path><path d="M1452.98 393.51L1454.02 206.19" stroke="hsl(228.5, 77.2%, 51.5%)" stroke-width="1.5"></path><path d="M1452.98 393.51L1297.49 506.88" stroke="hsl(228.5, 77.2%, 51.5%)" stroke-width="1.5"></path><path d="M1442.19 670.2L1442.19 670.2" stroke="hsl(228.5, 77.2%, 51.5%)" stroke-width="1.5"></path><path d="M1442.19 670.2L1392.34 550.48" stroke="hsl(228.5, 77.2%, 51.5%)" stroke-width="1.5"></path><path d="M1442.19 670.2L1572.4 696.37" stroke="hsl(228.5, 77.2%, 51.5%)" stroke-width="1.5"></path><path d="M1442.19 670.2L1305.4 662.89" stroke="hsl(228.5, 77.2%, 51.5%)" stroke-width="1.5"></path><path d="M1442.19 670.2L1297.49 506.88" stroke="hsl(228.5, 77.2%, 51.5%)" stroke-width="1.5"></path><path d="M1442.19 670.2L1452.98 393.51" stroke="hsl(228.5, 77.2%, 51.5%)" stroke-width="1.5"></path><path d="M1442.19 670.2L1130.23 650.39" stroke="hsl(228.5, 77.2%, 51.5%)" stroke-width="1.5"></path><path d="M1537.92 103.56L1537.92 103.56" stroke="hsl(228.5, 77.2%, 51.5%)" stroke-width="1.5"></path><path d="M1572.4 696.37L1572.4 696.37" stroke="hsl(228.5, 77.2%, 51.5%)" stroke-width="1.5"></path><path d="M1572.4 696.37L1392.34 550.48" stroke="hsl(228.5, 77.2%, 51.5%)" stroke-width="1.5"></path><path d="M-61.31 497.53L-61.31 497.53" stroke="hsl(228.5, 77.2%, 51.5%)" stroke-width="1.5"></path><path d="M-61.31 497.53L73.53 559.61" stroke="hsl(228.5, 77.2%, 51.5%)" stroke-width="1.5"></path><path d="M-61.31 497.53L-84.32 656.08" stroke="hsl(228.5, 77.2%, 51.5%)" stroke-width="1.5"></path><path d="M-61.31 497.53L106.75 661.45" stroke="hsl(228.5, 77.2%, 51.5%)" stroke-width="1.5"></path><path d="M-61.31 497.53L216.63 495.37" stroke="hsl(228.5, 77.2%, 51.5%)" stroke-width="1.5"></path><path d="M-84.32 656.08L-84.32 656.08" stroke="hsl(228.5, 77.2%, 51.5%)" stroke-width="1.5"></path><path d="M-84.32 656.08L73.53 559.61" stroke="hsl(228.5, 77.2%, 51.5%)" stroke-width="1.5"></path><path d="M-84.32 656.08L106.75 661.45" stroke="hsl(228.5, 77.2%, 51.5%)" stroke-width="1.5"></path><path d="M-84.32 656.08L216.63 495.37" stroke="hsl(228.5, 77.2%, 51.5%)" stroke-width="1.5"></path><path d="M-84.32 656.08L341.84 666.05" stroke="hsl(228.5, 77.2%, 51.5%)" stroke-width="1.5"></path><path d="M-84.32 656.08L379.46 526.75" stroke="hsl(228.5, 77.2%, 51.5%)" stroke-width="1.5"></path><path d="M73.53 559.61L73.53 559.61" stroke="hsl(228.5, 77.2%, 51.5%)" stroke-width="1.5"></path><path d="M73.53 559.61L106.75 661.45" stroke="hsl(228.5, 77.2%, 51.5%)" stroke-width="1.5"></path><path d="M106.75 661.45L106.75 661.45" stroke="hsl(228.5, 77.2%, 51.5%)" stroke-width="1.5"></path><path d="M106.75 661.45L216.63 495.37" stroke="hsl(228.5, 77.2%, 51.5%)" stroke-width="1.5"></path><path d="M106.75 661.45L341.84 666.05" stroke="hsl(228.5, 77.2%, 51.5%)" stroke-width="1.5"></path><path d="M216.63 495.37L216.63 495.37" stroke="hsl(228.5, 77.2%, 51.5%)" stroke-width="1.5"></path><path d="M216.63 495.37L73.53 559.61" stroke="hsl(228.5, 77.2%, 51.5%)" stroke-width="1.5"></path><path d="M216.63 495.37L379.46 526.75" stroke="hsl(228.5, 77.2%, 51.5%)" stroke-width="1.5"></path><path d="M379.46 526.75L379.46 526.75" stroke="hsl(228.5, 77.2%, 51.5%)" stroke-width="1.5"></path><path d="M379.46 526.75L341.84 666.05" stroke="hsl(228.5, 77.2%, 51.5%)" stroke-width="1.5"></path><path d="M379.46 526.75L546.28 541.73" stroke="hsl(228.5, 77.2%, 51.5%)" stroke-width="1.5"></path><path d="M379.46 526.75L106.75 661.45" stroke="hsl(228.5, 77.2%, 51.5%)" stroke-width="1.5"></path><path d="M341.84 666.05L341.84 666.05" stroke="hsl(228.5, 77.2%, 51.5%)" stroke-width="1.5"></path><path d="M341.84 666.05L216.63 495.37" stroke="hsl(228.5, 77.2%, 51.5%)" stroke-width="1.5"></path><path d="M546.28 541.73L546.28 541.73" stroke="hsl(228.5, 77.2%, 51.5%)" stroke-width="1.5"></path><path d="M546.28 541.73L711.63 500.3" stroke="hsl(228.5, 77.2%, 51.5%)" stroke-width="1.5"></path><path d="M546.28 541.73L341.84 666.05" stroke="hsl(228.5, 77.2%, 51.5%)" stroke-width="1.5"></path><path d="M711.63 500.3L711.63 500.3" stroke="hsl(228.5, 77.2%, 51.5%)" stroke-width="1.5"></path><path d="M711.63 500.3L829.69 561.52" stroke="hsl(228.5, 77.2%, 51.5%)" stroke-width="1.5"></path><path d="M711.63 500.3L805.93 339.39" stroke="hsl(228.5, 77.2%, 51.5%)" stroke-width="1.5"></path><path d="M711.63 500.3L854.57 645.3" stroke="hsl(228.5, 77.2%, 51.5%)" stroke-width="1.5"></path><path d="M805.93 339.39L805.93 339.39" stroke="hsl(228.5, 77.2%, 51.5%)" stroke-width="1.5"></path><path d="M805.93 339.39L966.93 382.73" stroke="hsl(228.5, 77.2%, 51.5%)" stroke-width="1.5"></path><path d="M829.69 561.52L829.69 561.52" stroke="hsl(228.5, 77.2%, 51.5%)" stroke-width="1.5"></path><path d="M829.69 561.52L854.57 645.3" stroke="hsl(228.5, 77.2%, 51.5%)" stroke-width="1.5"></path><path d="M854.57 645.3L854.57 645.3" stroke="hsl(228.5, 77.2%, 51.5%)" stroke-width="1.5"></path><path d="M986.37 255.81L986.37 255.81" stroke="hsl(228.5, 77.2%, 51.5%)" stroke-width="1.5"></path><path d="M986.37 255.81L1093.49 199.17" stroke="hsl(228.5, 77.2%, 51.5%)" stroke-width="1.5"></path><path d="M986.37 255.81L966.93 382.73" stroke="hsl(228.5, 77.2%, 51.5%)" stroke-width="1.5"></path><path d="M986.37 255.81L1089.74 390.18" stroke="hsl(228.5, 77.2%, 51.5%)" stroke-width="1.5"></path><path d="M986.37 255.81L805.93 339.39" stroke="hsl(228.5, 77.2%, 51.5%)" stroke-width="1.5"></path><path d="M966.93 382.73L966.93 382.73" stroke="hsl(228.5, 77.2%, 51.5%)" stroke-width="1.5"></path><path d="M966.93 382.73L982.75 487.68" stroke="hsl(228.5, 77.2%, 51.5%)" stroke-width="1.5"></path><path d="M966.93 382.73L1089.74 390.18" stroke="hsl(228.5, 77.2%, 51.5%)" stroke-width="1.5"></path><path d="M966.93 382.73L1101.41 523.7" stroke="hsl(228.5, 77.2%, 51.5%)" stroke-width="1.5"></path><path d="M982.75 487.68L982.75 487.68" stroke="hsl(228.5, 77.2%, 51.5%)" stroke-width="1.5"></path><path d="M982.75 487.68L1101.41 523.7" stroke="hsl(228.5, 77.2%, 51.5%)" stroke-width="1.5"></path><path d="M1093.49 199.17L1093.49 199.17" stroke="hsl(228.5, 77.2%, 51.5%)" stroke-width="1.5"></path><path d="M1093.49 199.17L1276.31 232.69" stroke="hsl(228.5, 77.2%, 51.5%)" stroke-width="1.5"></path><path d="M1093.49 199.17L1089.74 390.18" stroke="hsl(228.5, 77.2%, 51.5%)" stroke-width="1.5"></path><path d="M1093.49 199.17L1243.62 78.58" stroke="hsl(228.5, 77.2%, 51.5%)" stroke-width="1.5"></path><path d="M1089.74 390.18L1089.74 390.18" stroke="hsl(228.5, 77.2%, 51.5%)" stroke-width="1.5"></path><path d="M1089.74 390.18L1101.41 523.7" stroke="hsl(228.5, 77.2%, 51.5%)" stroke-width="1.5"></path><path d="M1089.74 390.18L982.75 487.68" stroke="hsl(228.5, 77.2%, 51.5%)" stroke-width="1.5"></path><path d="M1101.41 523.7L1101.41 523.7" stroke="hsl(228.5, 77.2%, 51.5%)" stroke-width="1.5"></path><path d="M1301.7 -59.99L1301.7 -59.99" stroke="hsl(228.5, 77.2%, 51.5%)" stroke-width="1.5"></path><path d="M1301.7 -59.99L1406.24 -109.52" stroke="hsl(228.5, 77.2%, 51.5%)" stroke-width="1.5"></path><path d="M1301.7 -59.99L1243.62 78.58" stroke="hsl(228.5, 77.2%, 51.5%)" stroke-width="1.5"></path><path d="M1301.7 -59.99L1573.4 -99.63" stroke="hsl(228.5, 77.2%, 51.5%)" stroke-width="1.5"></path><path d="M1301.7 -59.99L1537.92 103.56" stroke="hsl(228.5, 77.2%, 51.5%)" stroke-width="1.5"></path><path d="M1301.7 -59.99L1276.31 232.69" stroke="hsl(228.5, 77.2%, 51.5%)" stroke-width="1.5"></path><path d="M1243.62 78.58L1243.62 78.58" stroke="hsl(228.5, 77.2%, 51.5%)" stroke-width="1.5"></path><path d="M1243.62 78.58L1276.31 232.69" stroke="hsl(228.5, 77.2%, 51.5%)" stroke-width="1.5"></path><path d="M1243.62 78.58L1454.02 206.19" stroke="hsl(228.5, 77.2%, 51.5%)" stroke-width="1.5"></path><path d="M1243.62 78.58L1406.24 -109.52" stroke="hsl(228.5, 77.2%, 51.5%)" stroke-width="1.5"></path><path d="M1276.31 232.69L1276.31 232.69" stroke="hsl(228.5, 77.2%, 51.5%)" stroke-width="1.5"></path><path d="M1276.31 232.69L1307.39 370.63" stroke="hsl(228.5, 77.2%, 51.5%)" stroke-width="1.5"></path><path d="M1276.31 232.69L1454.02 206.19" stroke="hsl(228.5, 77.2%, 51.5%)" stroke-width="1.5"></path><path d="M1307.39 370.63L1307.39 370.63" stroke="hsl(228.5, 77.2%, 51.5%)" stroke-width="1.5"></path><path d="M1307.39 370.63L1297.49 506.88" stroke="hsl(228.5, 77.2%, 51.5%)" stroke-width="1.5"></path><path d="M1297.49 506.88L1297.49 506.88" stroke="hsl(228.5, 77.2%, 51.5%)" stroke-width="1.5"></path><path d="M1297.49 506.88L1392.34 550.48" stroke="hsl(228.5, 77.2%, 51.5%)" stroke-width="1.5"></path><path d="M1297.49 506.88L1305.4 662.89" stroke="hsl(228.5, 77.2%, 51.5%)" stroke-width="1.5"></path><path d="M1297.49 506.88L1101.41 523.7" stroke="hsl(228.5, 77.2%, 51.5%)" stroke-width="1.5"></path><path d="M1305.4 662.89L1305.4 662.89" stroke="hsl(228.5, 77.2%, 51.5%)" stroke-width="1.5"></path><path d="M1305.4 662.89L1392.34 550.48" stroke="hsl(228.5, 77.2%, 51.5%)" stroke-width="1.5"></path><path d="M1305.4 662.89L1101.41 523.7" stroke="hsl(228.5, 77.2%, 51.5%)" stroke-width="1.5"></path><path d="M1305.4 662.89L1572.4 696.37" stroke="hsl(228.5, 77.2%, 51.5%)" stroke-width="1.5"></path><path d="M1406.24 -109.52L1406.24 -109.52" stroke="hsl(228.5, 77.2%, 51.5%)" stroke-width="1.5"></path><path d="M1406.24 -109.52L1573.4 -99.63" stroke="hsl(228.5, 77.2%, 51.5%)" stroke-width="1.5"></path><path d="M1406.24 -109.52L1537.92 103.56" stroke="hsl(228.5, 77.2%, 51.5%)" stroke-width="1.5"></path><path d="M1406.24 -109.52L1454.02 206.19" stroke="hsl(228.5, 77.2%, 51.5%)" stroke-width="1.5"></path><path d="M1454.02 206.19L1454.02 206.19" stroke="hsl(228.5, 77.2%, 51.5%)" stroke-width="1.5"></path><path d="M1454.02 206.19L1537.92 103.56" stroke="hsl(228.5, 77.2%, 51.5%)" stroke-width="1.5"></path><path d="M1392.34 550.48L1392.34 550.48" stroke="hsl(228.5, 77.2%, 51.5%)" stroke-width="1.5"></path><path d="M1573.4 -99.63L1573.4 -99.63" stroke="hsl(228.5, 77.2%, 51.5%)" stroke-width="1.5"></path><path d="M1573.4 -99.63L1537.92 103.56" stroke="hsl(228.5, 77.2%, 51.5%)" stroke-width="1.5"></path><path d="M1573.4 -99.63L1409.32 97.33" stroke="hsl(228.5, 77.2%, 51.5%)" stroke-width="1.5"></path><circle r="25" cx="687.89" cy="677.27" fill="url(#SvgjsRadialGradient1001)"></circle><circle r="25" cx="951.91" cy="673.13" fill="url(#SvgjsRadialGradient1001)"></circle><circle r="25" cx="1130.23" cy="650.39" fill="url(#SvgjsRadialGradient1001)"></circle><circle r="25" cx="1409.32" cy="97.33" fill="url(#SvgjsRadialGradient1001)"></circle><circle r="25" cx="1452.98" cy="393.51" fill="url(#SvgjsRadialGradient1001)"></circle><circle r="25" cx="1442.19" cy="670.2" fill="url(#SvgjsRadialGradient1001)"></circle><circle r="25" cx="1537.92" cy="103.56" fill="url(#SvgjsRadialGradient1001)"></circle><circle r="25" cx="1572.4" cy="696.37" fill="url(#SvgjsRadialGradient1001)"></circle><circle r="5" cx="-61.31" cy="497.53" fill="#8b9ad9"></circle><circle r="5" cx="-84.32" cy="656.08" fill="#8b9ad9"></circle><circle r="5" cx="73.53" cy="559.61" fill="#8b9ad9"></circle><circle r="5" cx="106.75" cy="661.45" fill="#8b9ad9"></circle><circle r="5" cx="216.63" cy="495.37" fill="#8b9ad9"></circle><circle r="5" cx="379.46" cy="526.75" fill="#8b9ad9"></circle><circle r="5" cx="341.84" cy="666.05" fill="#8b9ad9"></circle><circle r="5" cx="546.28" cy="541.73" fill="#8b9ad9"></circle><circle r="5" cx="711.63" cy="500.3" fill="#8b9ad9"></circle><circle r="5" cx="805.93" cy="339.39" fill="#8b9ad9"></circle><circle r="5" cx="829.69" cy="561.52" fill="#8b9ad9"></circle><circle r="5" cx="854.57" cy="645.3" fill="#8b9ad9"></circle><circle r="5" cx="986.37" cy="255.81" fill="#8b9ad9"></circle><circle r="5" cx="966.93" cy="382.73" fill="#8b9ad9"></circle><circle r="5" cx="982.75" cy="487.68" fill="#8b9ad9"></circle><circle r="5" cx="1093.49" cy="199.17" fill="#8b9ad9"></circle><circle r="5" cx="1089.74" cy="390.18" fill="#8b9ad9"></circle><circle r="5" cx="1101.41" cy="523.7" fill="#8b9ad9"></circle><circle r="5" cx="1301.7" cy="-59.99" fill="#8b9ad9"></circle><circle r="5" cx="1243.62" cy="78.58" fill="#8b9ad9"></circle><circle r="5" cx="1276.31" cy="232.69" fill="#8b9ad9"></circle><circle r="5" cx="1307.39" cy="370.63" fill="#8b9ad9"></circle><circle r="5" cx="1297.49" cy="506.88" fill="#8b9ad9"></circle><circle r="5" cx="1305.4" cy="662.89" fill="#8b9ad9"></circle><circle r="5" cx="1406.24" cy="-109.52" fill="#8b9ad9"></circle><circle r="5" cx="1454.02" cy="206.19" fill="#8b9ad9"></circle><circle r="5" cx="1392.34" cy="550.48" fill="#8b9ad9"></circle><circle r="5" cx="1573.4" cy="-99.63" fill="#8b9ad9"></circle></g><defs><mask id="SvgjsMask1000"><rect width="1440" height="560" fill="#ffffff"></rect></mask><radialGradient id="SvgjsRadialGradient1001"><stop stop-color="#ffffff" offset="0.1"></stop><stop stop-color="#1735b3" offset="0.2"></stop><stop stop-color="rgba(23, 53, 179, 0)" offset="1"></stop></radialGradient></defs></svg>